<?xml version="1.0" encoding="utf-8"?>
<!-- Generator: Adobe Illustrator 23.0.1, SVG Export Plug-In . SVG Version: 6.00 Build 0)  -->
<svg version="1.1" xmlns="http://www.w3.org/2000/svg" xmlns:xlink="http://www.w3.org/1999/xlink" x="0px" y="0px"
	 viewBox="0 0 403.4 669.8" style="enable-background:new 0 0 403.4 669.8;" xml:space="preserve">
<style type="text/css">
	.st0{fill:#188341;stroke:#DDDD1F;stroke-width:8;stroke-linecap:round;stroke-miterlimit:10;}
</style>
<g id="Layer_1">
</g>
<g id="Layer_2">
	<path class="st0" d="M4.1,605.2l3.6-218.6l16.9,0.5c0,0,10,194,136.2,203.2c0,23.5-1,21.9-1,21.9s-29.7-5.7-58-14.2
		c-16.2-4.9-31.3-12.6-46.3-20.3c-15.7-8-23.7-2.2-23.7-2.2s-8.2,3.6-9.7,28.6C9.7,604.2,4.1,605.2,4.1,605.2z"/>
	<path class="st0" d="M160.8,662.7l-0.3-275.4l17,13.3l0.3,190c0,0,31.9-1.7,39.7-6.1c0.3,12.6,0,26.2,0,26.2l-39.9,2.9l0.1,51.6
		L160.8,662.7z"/>
	<path class="st0" d="M236.6,662.7l-16.5,2.4l-0.5-229.7l17.4,18.7l-0.3,121.2c0,0,26.2-17.8,30.1-49.1
		c3.9-31.3-20.3-62.6-20.3-62.6s-41.4-53.4-105-89.9S39.7,290.3,39.7,290.3s-53.8-59.6-22.8-139.9S160,58.9,160,58.9v23.6
		c0,0-35.6,20.4-32.9,55.2s33.4,64.3,33.4,64.3L160.2,6.1l17.7-1.5v52.6l41.5-0.2v20c0,0-21.6-1.5-41.2,1.9
		c0,13.8-0.5,140.4-0.5,140.4s31.8,28.6,42,33.9c-0.2-16.9,0-248.7,0-248.7l16.7,2l0.5,52.6c0,0,35.2,4.2,86,33.7
		c0,0,12.9,8.3,19.6,6.5c6.6-1.9,10-9.5,10-9.5s3.9-10.7,4.4-23l17.7-0.2c0,0-4.8,163.2-3.7,183c-8.9-0.2-17.5,0.2-17.5,0.2
		S346,103.4,237.1,79.6c0,25.9-0.3,184.9-0.3,184.9S372.6,347.8,390.3,405c17.7,57.2,4.1,98,4.1,98s-18.7,90.2-157.6,104.9
		L236.6,662.7z"/>
</g>
</svg>
